<?xml version="1.0" encoding="UTF-8"?>
<!DOCTYPE svg PUBLIC "-//W3C//DTD SVG 1.1//EN" "http://www.w3.org/Graphics/SVG/1.1/DTD/svg11.dtd">
<svg xmlns="http://www.w3.org/2000/svg" version="1.1" width="666px" height="375px" style="shape-rendering:geometricPrecision; text-rendering:geometricPrecision; image-rendering:optimizeQuality; fill-rule:evenodd; clip-rule:evenodd" xmlns:xlink="http://www.w3.org/1999/xlink">
<g><path style="opacity:0.977" fill="#f6f6f6" d="M 343.5,90.5 C 342.357,90.9081 341.357,91.5748 340.5,92.5C 331.488,108.527 322.488,124.527 313.5,140.5C 312.18,142.463 310.846,144.463 309.5,146.5C 302.227,159.612 294.727,172.612 287,185.5C 285.293,187.909 284.46,190.575 284.5,193.5C 283.31,195.355 281.977,197.188 280.5,199C 282.218,199.346 283.885,199.846 285.5,200.5C 301.119,199.516 316.785,199.182 332.5,199.5C 337.316,200.326 342.316,200.826 347.5,201C 350.333,205.833 353.167,210.667 356,215.5C 356.671,216.252 357.504,216.586 358.5,216.5C 359.014,218.366 359.68,220.2 360.5,222C 360.355,222.772 360.022,223.439 359.5,224C 320.505,223.773 281.505,223.607 242.5,223.5C 242.491,221.692 242.991,220.025 244,218.5C 268.847,175.468 293.68,132.468 318.5,89.5C 320.078,88.7022 321.744,88.2022 323.5,88C 330.158,87.5004 336.825,87.3337 343.5,87.5C 343.5,88.5 343.5,89.5 343.5,90.5 Z"/></g>
<g><path style="opacity:0.999" fill="#131313" d="M 343.5,90.5 C 345.506,91.4851 347.173,92.8184 348.5,94.5C 347.883,94.3893 347.383,94.056 347,93.5C 337.601,108.573 328.601,123.907 320,139.5C 318.951,141.618 317.451,143.284 315.5,144.5C 315.5,143.833 315.167,143.5 314.5,143.5C 313.89,142.609 313.557,141.609 313.5,140.5C 322.488,124.527 331.488,108.527 340.5,92.5C 341.357,91.5748 342.357,90.9081 343.5,90.5 Z"/></g>
<g><path style="opacity:0.979" fill="#f7f7f7" d="M 348.5,94.5 C 374.202,137.406 399.369,180.739 424,224.5C 424.667,226.167 424.667,227.833 424,229.5C 420.599,234.577 417.599,239.911 415,245.5C 414.163,247.007 412.996,247.507 411.5,247C 403.042,232.586 394.709,218.086 386.5,203.5C 386.88,201.302 386.213,199.635 384.5,198.5C 379.167,188.833 373.833,179.167 368.5,169.5C 368.027,168.094 367.027,167.427 365.5,167.5C 361.741,160.31 357.741,153.31 353.5,146.5C 352.738,142.309 350.904,138.642 348,135.5C 337.95,152.275 328.45,169.275 319.5,186.5C 318.235,189.525 316.568,192.358 314.5,195C 310,195.167 305.5,195.333 301,195.5C 296.114,195.493 291.614,194.826 287.5,193.5C 296.667,179.171 305.334,164.504 313.5,149.5C 314.404,148.791 314.737,147.791 314.5,146.5C 314.833,145.833 315.167,145.167 315.5,144.5C 317.451,143.284 318.951,141.618 320,139.5C 328.601,123.907 337.601,108.573 347,93.5C 347.383,94.056 347.883,94.3893 348.5,94.5 Z M 353.5,146.5 C 357.741,153.31 361.741,160.31 365.5,167.5C 366.5,169.833 365.833,170.5 363.5,169.5C 359.512,162.194 355.512,154.86 351.5,147.5C 351.409,145.302 352.075,144.969 353.5,146.5 Z"/></g>
<g><path style="opacity:0.979" fill="#0a0a0a" d="M 353.5,146.5 C 352.075,144.969 351.409,145.302 351.5,147.5C 350.153,146.829 348.986,146.829 348,147.5C 343.642,154.216 339.809,161.216 336.5,168.5C 345.185,184.177 353.851,199.844 362.5,215.5C 361.041,215.433 359.708,215.766 358.5,216.5C 357.504,216.586 356.671,216.252 356,215.5C 353.167,210.667 350.333,205.833 347.5,201C 342.316,200.826 337.316,200.326 332.5,199.5C 332.663,197.143 332.497,194.81 332,192.5C 328.346,189.325 324.179,187.325 319.5,186.5C 328.45,169.275 337.95,152.275 348,135.5C 350.904,138.642 352.738,142.309 353.5,146.5 Z"/></g>
<g><path style="opacity:0.569" fill="#464646" d="M 313.5,140.5 C 313.557,141.609 313.89,142.609 314.5,143.5C 313.859,144.482 313.193,145.482 312.5,146.5C 312.97,147.463 313.637,147.463 314.5,146.5C 314.737,147.791 314.404,148.791 313.5,149.5C 312.455,148.122 311.122,147.122 309.5,146.5C 310.846,144.463 312.18,142.463 313.5,140.5 Z"/></g>
<g><path style="opacity:0.995" fill="#121212" d="M 309.5,146.5 C 311.122,147.122 312.455,148.122 313.5,149.5C 305.334,164.504 296.667,179.171 287.5,193.5C 286.5,192.167 285.5,192.167 284.5,193.5C 284.46,190.575 285.293,187.909 287,185.5C 294.727,172.612 302.227,159.612 309.5,146.5 Z"/></g>
<g><path style="opacity:0.992" fill="#f8f8f8" d="M 351.5,147.5 C 355.512,154.86 359.512,162.194 363.5,169.5C 363.232,171.099 363.566,172.432 364.5,173.5C 369.485,182.131 374.485,190.798 379.5,199.5C 380.833,200.833 382.167,202.167 383.5,203.5C 390.833,216.833 398.167,230.167 405.5,243.5C 405.427,245.027 406.094,246.027 407.5,246.5C 381.842,247.833 355.842,248.5 329.5,248.5C 303.5,248.167 277.5,247.833 251.5,247.5C 248.421,241.674 245.087,236.007 241.5,230.5C 283.657,228.835 325.99,227.835 368.5,227.5C 366.101,223.748 364.101,219.748 362.5,215.5C 353.851,199.844 345.185,184.177 336.5,168.5C 339.809,161.216 343.642,154.216 348,147.5C 348.986,146.829 350.153,146.829 351.5,147.5 Z"/></g>
<g><path style="opacity:0.247" fill="#b0b0b0" d="M 365.5,167.5 C 367.027,167.427 368.027,168.094 368.5,169.5C 367.167,170.833 365.833,172.167 364.5,173.5C 363.566,172.432 363.232,171.099 363.5,169.5C 365.833,170.5 366.5,169.833 365.5,167.5 Z"/></g>
<g><path style="opacity:0.992" fill="#121212" d="M 368.5,169.5 C 373.833,179.167 379.167,188.833 384.5,198.5C 384.53,199.497 384.03,200.164 383,200.5C 381.862,200.011 380.695,199.678 379.5,199.5C 374.485,190.798 369.485,182.131 364.5,173.5C 365.833,172.167 367.167,170.833 368.5,169.5 Z"/></g>
<g><path style="opacity:0.063" fill="#525252" d="M 384.5,198.5 C 386.213,199.635 386.88,201.302 386.5,203.5C 385.849,202.909 385.182,202.243 384.5,201.5C 383.702,201.957 383.369,202.624 383.5,203.5C 382.167,202.167 380.833,200.833 379.5,199.5C 380.695,199.678 381.862,200.011 383,200.5C 384.03,200.164 384.53,199.497 384.5,198.5 Z"/></g>
<g><path style="opacity:0.46" fill="#dcdcdc" d="M 368.5,227.5 C 325.99,227.835 283.657,228.835 241.5,230.5C 240.596,229.791 240.263,228.791 240.5,227.5C 283.167,227.5 325.833,227.5 368.5,227.5 Z"/></g>
<g><path style="opacity:0.039" fill="#797979" d="M 405.5,243.5 C 406.906,243.973 407.573,244.973 407.5,246.5C 406.094,246.027 405.427,245.027 405.5,243.5 Z"/></g>
</svg>
