<?xml version="1.0" encoding="UTF-8"?>
<!DOCTYPE svg PUBLIC "-//W3C//DTD SVG 1.1//EN" "http://www.w3.org/Graphics/SVG/1.1/DTD/svg11.dtd">
<svg xmlns="http://www.w3.org/2000/svg" version="1.1" width="2000px" height="2000px" style="shape-rendering:geometricPrecision; text-rendering:geometricPrecision; image-rendering:optimizeQuality; fill-rule:evenodd; clip-rule:evenodd" xmlns:xlink="http://www.w3.org/1999/xlink">
<g><path style="opacity:1" fill="#fdfdfd" d="M 976.5,7.5 C 1246.63,5.33419 1480.63,94.8342 1678.5,276C 1869.16,459.05 1973,683.217 1990,948.5C 2000.14,1229.67 1910.81,1473.33 1722,1679.5C 1552.92,1855.46 1346.42,1957.62 1102.5,1986C 837.747,2010.05 600.08,1942.05 389.5,1782C 201.928,1632.83 81.7614,1440.67 29,1205.5C -18.4186,969.097 13.5814,744.097 125,530.5C 247.564,308.608 427.73,153.442 665.5,65C 766.314,29.6445 869.981,10.4779 976.5,7.5 Z"/></g>
<g><path style="opacity:1" fill="#6d6d6d" d="M 991.5,451.5 C 982.946,452.321 974.279,453.321 965.5,454.5C 968.534,452.982 971.867,452.149 975.5,452C 980.823,451.501 986.156,451.334 991.5,451.5 Z"/></g>
<g><path style="opacity:1" fill="#000000" d="M 1018.5,451.5 C 1027.05,452.321 1035.72,453.321 1044.5,454.5C 1050.57,454.676 1056.57,455.343 1062.5,456.5C 1065.45,458.41 1068.79,459.41 1072.5,459.5C 1075.81,460.045 1079.15,460.545 1082.5,461C 1143.25,480.642 1192.75,516.142 1231,567.5C 1237.92,577.663 1244.58,587.997 1251,598.5C 1254.59,608.516 1258.92,618.183 1264,627.5C 1266.49,634.788 1268.65,642.121 1270.5,649.5C 1270.86,653.915 1272.19,657.915 1274.5,661.5C 1274.96,664.482 1275.3,667.482 1275.5,670.5C 1275.95,675.404 1276.95,680.07 1278.5,684.5C 1280.08,693.954 1280.75,703.621 1280.5,713.5C 1280.5,723.5 1280.5,733.5 1280.5,743.5C 1280.48,752.182 1280.15,760.848 1279.5,769.5C 1277.88,772.171 1277.22,775.171 1277.5,778.5C 1270.65,817.684 1255.81,853.351 1233,885.5C 1194.78,938.213 1144.62,974.713 1082.5,995C 1076.58,995.306 1070.92,996.639 1065.5,999C 1058.53,1000.16 1051.53,1001 1044.5,1001.5C 1040.88,1001.32 1037.54,1001.99 1034.5,1003.5C 1014.83,1004.83 995.167,1004.83 975.5,1003.5C 972.829,1001.88 969.829,1001.22 966.5,1001.5C 960.141,1001.13 953.808,1000.46 947.5,999.5C 902.573,989.477 862.573,969.643 827.5,940C 794.494,911.413 768.661,877.58 750,838.5C 746.974,830.46 743.974,822.46 741,814.5C 740.1,810.829 739.266,807.163 738.5,803.5C 738.267,800.458 737.267,797.792 735.5,795.5C 735.313,791.087 734.646,786.754 733.5,782.5C 733.344,777.529 732.344,772.862 730.5,768.5C 729.901,760.514 729.568,752.514 729.5,744.5C 729.5,734.5 729.5,724.5 729.5,714.5C 729.193,704.616 729.86,694.95 731.5,685.5C 732.989,681.764 733.656,677.764 733.5,673.5C 734.295,669.524 734.962,665.524 735.5,661.5C 737.397,659.302 738.397,656.636 738.5,653.5C 740.113,644.6 742.613,635.933 746,627.5C 776.846,555.833 827.68,503.666 898.5,471C 908.101,467.515 917.768,464.182 927.5,461C 929.473,460.505 931.473,460.338 933.5,460.5C 938.622,460.39 943.288,459.056 947.5,456.5C 948.167,456.5 948.833,456.5 949.5,456.5C 955.098,456.844 960.432,456.178 965.5,454.5C 974.279,453.321 982.946,452.321 991.5,451.5C 1000.5,450.203 1009.5,450.203 1018.5,451.5 Z"/></g>
<g><path style="opacity:1" fill="#6f6f6f" d="M 1018.5,451.5 C 1023.84,451.334 1029.18,451.501 1034.5,452C 1038.13,452.149 1041.47,452.982 1044.5,454.5C 1035.72,453.321 1027.05,452.321 1018.5,451.5 Z"/></g>
<g><path style="opacity:1" fill="#373737" d="M 965.5,454.5 C 960.432,456.178 955.098,456.844 949.5,456.5C 954.616,455.194 959.949,454.527 965.5,454.5 Z"/></g>
<g><path style="opacity:1" fill="#616161" d="M 947.5,456.5 C 943.288,459.056 938.622,460.39 933.5,460.5C 937.897,458.595 942.563,457.261 947.5,456.5 Z"/></g>
<g><path style="opacity:1" fill="#6b6b6b" d="M 1062.5,456.5 C 1066.12,456.899 1069.45,457.899 1072.5,459.5C 1068.79,459.41 1065.45,458.41 1062.5,456.5 Z"/></g>
<g><path style="opacity:1" fill="#5f5f5f" d="M 1270.5,649.5 C 1272.41,653.216 1273.74,657.216 1274.5,661.5C 1272.19,657.915 1270.86,653.915 1270.5,649.5 Z"/></g>
<g><path style="opacity:1" fill="#4b4b4b" d="M 738.5,653.5 C 738.397,656.636 737.397,659.302 735.5,661.5C 735.733,658.458 736.733,655.792 738.5,653.5 Z"/></g>
<g><path style="opacity:1" fill="#6d6d6d" d="M 733.5,673.5 C 733.656,677.764 732.989,681.764 731.5,685.5C 731.083,681.183 731.75,677.183 733.5,673.5 Z"/></g>
<g><path style="opacity:1" fill="#717171" d="M 1275.5,670.5 C 1277.96,674.726 1278.96,679.393 1278.5,684.5C 1276.95,680.07 1275.95,675.404 1275.5,670.5 Z"/></g>
<g><path style="opacity:1" fill="#6c6c6c" d="M 729.5,714.5 C 729.5,724.5 729.5,734.5 729.5,744.5C 727.985,739.42 727.318,734.086 727.5,728.5C 727.667,724.833 727.833,721.167 728,717.5C 728.232,716.263 728.732,715.263 729.5,714.5 Z"/></g>
<g><path style="opacity:1" fill="#6e6e6e" d="M 1280.5,713.5 C 1282.05,718.401 1282.72,723.568 1282.5,729C 1282.33,732.833 1282.17,736.667 1282,740.5C 1281.77,741.737 1281.27,742.737 1280.5,743.5C 1280.5,733.5 1280.5,723.5 1280.5,713.5 Z"/></g>
<g><path style="opacity:1" fill="#6b6b6b" d="M 730.5,768.5 C 732.344,772.862 733.344,777.529 733.5,782.5C 731.77,778.117 730.77,773.45 730.5,768.5 Z"/></g>
<g><path style="opacity:1" fill="#6b6b6b" d="M 1279.5,769.5 C 1279.58,772.781 1278.91,775.781 1277.5,778.5C 1277.22,775.171 1277.88,772.171 1279.5,769.5 Z"/></g>
<g><path style="opacity:1" fill="#6c6c6c" d="M 735.5,795.5 C 737.267,797.792 738.267,800.458 738.5,803.5C 736.733,801.208 735.733,798.542 735.5,795.5 Z"/></g>
<g><path style="opacity:1" fill="#000000" d="M 947.5,1054.5 C 948.99,1056.28 950.99,1056.95 953.5,1056.5C 959.464,1057.31 965.464,1057.64 971.5,1057.5C 973.817,1059.74 976.484,1060.07 979.5,1058.5C 990.228,1060.93 1000.89,1061.6 1011.5,1060.5C 1017.95,1060.85 1024.28,1060.18 1030.5,1058.5C 1033.79,1059.92 1036.79,1059.58 1039.5,1057.5C 1045.21,1057.69 1050.88,1057.35 1056.5,1056.5C 1059.99,1056.55 1062.99,1055.55 1065.5,1053.5C 1068.05,1052.61 1070.72,1052.28 1073.5,1052.5C 1076.04,1052.49 1078.54,1052.16 1081,1051.5C 1082.38,1051.32 1083.21,1050.65 1083.5,1049.5C 1111.93,1042.46 1139.26,1032.29 1165.5,1019C 1178.1,1011.36 1190.77,1003.69 1203.5,996C 1221.3,983.544 1239.63,971.877 1258.5,961C 1265.46,959.17 1272.46,959.003 1279.5,960.5C 1288.29,962.319 1297.29,963.652 1306.5,964.5C 1309.24,964.401 1311.9,964.735 1314.5,965.5C 1316.51,966.924 1318.85,967.59 1321.5,967.5C 1351.66,976.173 1378.66,990.673 1402.5,1011C 1411.67,1020.83 1420.83,1030.67 1430,1040.5C 1437.76,1053.04 1445.76,1065.37 1454,1077.5C 1457.91,1087.25 1462.58,1096.59 1468,1105.5C 1472.21,1118.03 1476.88,1130.36 1482,1142.5C 1482.95,1145.43 1483.45,1148.43 1483.5,1151.5C 1483.73,1155.94 1485.06,1159.94 1487.5,1163.5C 1490.76,1171.86 1492.76,1180.52 1493.5,1189.5C 1493.17,1192.23 1493.84,1194.56 1495.5,1196.5C 1496.69,1199.95 1497.35,1203.61 1497.5,1207.5C 1497.42,1212.19 1498.42,1216.53 1500.5,1220.5C 1501.47,1222.95 1501.81,1225.61 1501.5,1228.5C 1501.52,1233.87 1502.02,1239.21 1503,1244.5C 1503.28,1245.42 1503.78,1246.08 1504.5,1246.5C 1505.08,1253.82 1505.58,1261.15 1506,1268.5C 1506.23,1269.74 1506.73,1270.74 1507.5,1271.5C 1507.33,1275.18 1507.5,1278.85 1508,1282.5C 1508.23,1283.74 1508.73,1284.74 1509.5,1285.5C 1511.48,1303.63 1512.48,1321.96 1512.5,1340.5C 1511.56,1354.2 1511.22,1367.87 1511.5,1381.5C 1510.51,1389.32 1510.17,1397.32 1510.5,1405.5C 1510.5,1407.17 1510.5,1408.83 1510.5,1410.5C 1509.53,1414.57 1508.03,1418.57 1506,1422.5C 1505.5,1424.81 1505.34,1427.14 1505.5,1429.5C 1503.45,1435.6 1501.95,1441.94 1501,1448.5C 1495.47,1458.22 1490.47,1468.22 1486,1478.5C 1477.25,1490.76 1467.42,1502.26 1456.5,1513C 1447.99,1519.09 1439.65,1525.42 1431.5,1532C 1418.67,1538.18 1405.67,1544.18 1392.5,1550C 1381.66,1552.89 1370.66,1555.06 1359.5,1556.5C 1353.89,1556.07 1348.55,1556.74 1343.5,1558.5C 1338.35,1559.33 1333.02,1559.83 1327.5,1560C 1112.83,1560.67 898.167,1560.67 683.5,1560C 677.652,1559.83 671.985,1559.33 666.5,1558.5C 661.447,1556.74 656.114,1556.07 650.5,1556.5C 638.347,1554.73 626.347,1552.23 614.5,1549C 606.922,1545.74 599.588,1542.07 592.5,1538C 590.212,1537.18 587.878,1536.51 585.5,1536C 571.477,1526.98 558.31,1516.81 546,1505.5C 538.985,1496.16 531.652,1487.16 524,1478.5C 519.946,1467.99 514.946,1457.99 509,1448.5C 506,1437.5 503,1426.5 500,1415.5C 499.501,1409.51 499.334,1403.51 499.5,1397.5C 499.821,1392.31 499.487,1387.31 498.5,1382.5C 498.5,1366.17 498.5,1349.83 498.5,1333.5C 497.831,1320.52 498.164,1307.52 499.5,1294.5C 502.135,1283.8 503.468,1272.8 503.5,1261.5C 503.5,1260.83 503.5,1260.17 503.5,1259.5C 505.177,1255.46 505.844,1251.12 505.5,1246.5C 506.41,1244.98 507.243,1243.31 508,1241.5C 508.952,1234.86 509.452,1228.2 509.5,1221.5C 509.5,1221.17 509.5,1220.83 509.5,1220.5C 511.37,1217.19 512.37,1213.52 512.5,1209.5C 512.426,1205.02 513.093,1200.68 514.5,1196.5C 516.074,1194.9 516.741,1192.9 516.5,1190.5C 516.844,1186.11 517.51,1181.77 518.5,1177.5C 520.267,1175.21 521.267,1172.54 521.5,1169.5C 532.905,1121.78 553.072,1078.12 582,1038.5C 608.554,1005.16 642.054,982.158 682.5,969.5C 687.264,969.231 691.597,967.898 695.5,965.5C 698.096,964.735 700.763,964.401 703.5,964.5C 712.706,963.652 721.706,962.319 730.5,960.5C 738.312,958.768 745.978,959.268 753.5,962C 781.171,978.834 808.505,996.167 835.5,1014C 870.711,1033.31 908.045,1046.81 947.5,1054.5 Z"/></g>
<g><path style="opacity:1" fill="#6e6e6e" d="M 1279.5,960.5 C 1288.83,960.447 1297.83,961.78 1306.5,964.5C 1297.29,963.652 1288.29,962.319 1279.5,960.5 Z"/></g>
<g><path style="opacity:1" fill="#6b6b6b" d="M 730.5,960.5 C 721.706,962.319 712.706,963.652 703.5,964.5C 712.189,961.902 721.189,960.568 730.5,960.5 Z"/></g>
<g><path style="opacity:1" fill="#6f6f6f" d="M 1314.5,965.5 C 1317.15,965.41 1319.49,966.076 1321.5,967.5C 1318.85,967.59 1316.51,966.924 1314.5,965.5 Z"/></g>
<g><path style="opacity:1" fill="#454545" d="M 695.5,965.5 C 691.597,967.898 687.264,969.231 682.5,969.5C 686.502,967.39 690.835,966.057 695.5,965.5 Z"/></g>
<g><path style="opacity:1" fill="#6e6e6e" d="M 966.5,1001.5 C 969.829,1001.22 972.829,1001.88 975.5,1003.5C 972.171,1003.78 969.171,1003.12 966.5,1001.5 Z"/></g>
<g><path style="opacity:1" fill="#6e6e6e" d="M 1044.5,1001.5 C 1041.46,1003.01 1038.12,1003.68 1034.5,1003.5C 1037.54,1001.99 1040.88,1001.32 1044.5,1001.5 Z"/></g>
<g><path style="opacity:1" fill="#444444" d="M 1083.5,1049.5 C 1083.21,1050.65 1082.38,1051.32 1081,1051.5C 1078.54,1052.16 1076.04,1052.49 1073.5,1052.5C 1076.55,1050.9 1079.88,1049.9 1083.5,1049.5 Z"/></g>
<g><path style="opacity:1" fill="#4e4e4e" d="M 947.5,1054.5 C 949.786,1054.59 951.786,1055.26 953.5,1056.5C 950.99,1056.95 948.99,1056.28 947.5,1054.5 Z"/></g>
<g><path style="opacity:1" fill="#5d5d5d" d="M 1065.5,1053.5 C 1062.99,1055.55 1059.99,1056.55 1056.5,1056.5C 1059.22,1054.93 1062.22,1053.93 1065.5,1053.5 Z"/></g>
<g><path style="opacity:1" fill="#6e6e6e" d="M 971.5,1057.5 C 984.879,1058.17 998.212,1059.17 1011.5,1060.5C 1000.89,1061.6 990.228,1060.93 979.5,1058.5C 976.484,1060.07 973.817,1059.74 971.5,1057.5 Z"/></g>
<g><path style="opacity:1" fill="#6f6f6f" d="M 1039.5,1057.5 C 1036.79,1059.58 1033.79,1059.92 1030.5,1058.5C 1024.28,1060.18 1017.95,1060.85 1011.5,1060.5C 1012.26,1059.73 1013.26,1059.23 1014.5,1059C 1022.82,1058.22 1031.15,1057.72 1039.5,1057.5 Z"/></g>
<g><path style="opacity:1" fill="#424242" d="M 1483.5,1151.5 C 1485.81,1155.08 1487.14,1159.08 1487.5,1163.5C 1485.06,1159.94 1483.73,1155.94 1483.5,1151.5 Z"/></g>
<g><path style="opacity:1" fill="#6c6c6c" d="M 521.5,1169.5 C 521.267,1172.54 520.267,1175.21 518.5,1177.5C 518.733,1174.46 519.733,1171.79 521.5,1169.5 Z"/></g>
<g><path style="opacity:1" fill="#6d6d6d" d="M 1493.5,1189.5 C 1494.61,1191.6 1495.28,1193.93 1495.5,1196.5C 1493.84,1194.56 1493.17,1192.23 1493.5,1189.5 Z"/></g>
<g><path style="opacity:1" fill="#6d6d6d" d="M 516.5,1190.5 C 516.741,1192.9 516.074,1194.9 514.5,1196.5C 514.595,1194.21 515.262,1192.21 516.5,1190.5 Z"/></g>
<g><path style="opacity:1" fill="#6b6b6b" d="M 1497.5,1207.5 C 1498.94,1211.62 1499.94,1215.95 1500.5,1220.5C 1498.42,1216.53 1497.42,1212.19 1497.5,1207.5 Z"/></g>
<g><path style="opacity:1" fill="#6c6c6c" d="M 512.5,1209.5 C 512.37,1213.52 511.37,1217.19 509.5,1220.5C 509.742,1216.52 510.742,1212.85 512.5,1209.5 Z"/></g>
<g><path style="opacity:1" fill="#3c3c3c" d="M 509.5,1221.5 C 509.452,1228.2 508.952,1234.86 508,1241.5C 507.243,1243.31 506.41,1244.98 505.5,1246.5C 506.747,1238.03 508.08,1229.69 509.5,1221.5 Z"/></g>
<g><path style="opacity:1" fill="#606060" d="M 1501.5,1228.5 C 1502.99,1234.29 1503.99,1240.29 1504.5,1246.5C 1503.78,1246.08 1503.28,1245.42 1503,1244.5C 1502.02,1239.21 1501.52,1233.87 1501.5,1228.5 Z"/></g>
<g><path style="opacity:1" fill="#393939" d="M 505.5,1246.5 C 505.844,1251.12 505.177,1255.46 503.5,1259.5C 503.624,1254.95 504.291,1250.62 505.5,1246.5 Z"/></g>
<g><path style="opacity:1" fill="#3b3b3b" d="M 1504.5,1246.5 C 1506.39,1254.58 1507.39,1262.92 1507.5,1271.5C 1506.73,1270.74 1506.23,1269.74 1506,1268.5C 1505.58,1261.15 1505.08,1253.82 1504.5,1246.5 Z"/></g>
<g><path style="opacity:1" fill="#707070" d="M 1507.5,1271.5 C 1509.1,1275.9 1509.77,1280.57 1509.5,1285.5C 1508.73,1284.74 1508.23,1283.74 1508,1282.5C 1507.5,1278.85 1507.33,1275.18 1507.5,1271.5 Z"/></g>
<g><path style="opacity:1" fill="#6a6a6a" d="M 503.5,1261.5 C 503.468,1272.8 502.135,1283.8 499.5,1294.5C 500.646,1283.35 501.979,1272.35 503.5,1261.5 Z"/></g>
<g><path style="opacity:1" fill="#646464" d="M 498.5,1333.5 C 498.5,1349.83 498.5,1366.17 498.5,1382.5C 498.5,1383.17 498.5,1383.83 498.5,1384.5C 497.698,1383.05 497.198,1381.38 497,1379.5C 496.333,1366.17 496.333,1352.83 497,1339.5C 497.191,1337.29 497.691,1335.29 498.5,1333.5 Z"/></g>
<g><path style="opacity:1" fill="#6d6d6d" d="M 1512.5,1340.5 C 1513.66,1353.33 1513.83,1366.33 1513,1379.5C 1512.77,1380.74 1512.27,1381.74 1511.5,1382.5C 1511.5,1382.17 1511.5,1381.83 1511.5,1381.5C 1511.22,1367.87 1511.56,1354.2 1512.5,1340.5 Z"/></g>
<g><path style="opacity:1" fill="#414141" d="M 1511.5,1381.5 C 1511.5,1381.83 1511.5,1382.17 1511.5,1382.5C 1512.25,1390.31 1511.92,1397.97 1510.5,1405.5C 1510.17,1397.32 1510.51,1389.32 1511.5,1381.5 Z"/></g>
<g><path style="opacity:1" fill="#3c3c3c" d="M 498.5,1382.5 C 499.487,1387.31 499.821,1392.31 499.5,1397.5C 497.95,1393.3 497.617,1388.97 498.5,1384.5C 498.5,1383.83 498.5,1383.17 498.5,1382.5 Z"/></g>
<g><path style="opacity:1" fill="#7a7a7a" d="M 1657.5,1368.5 C 1658.66,1388.66 1658.83,1409 1658,1429.5C 1656.99,1422.69 1656.15,1415.86 1655.5,1409C 1656.43,1395.51 1657.1,1382.01 1657.5,1368.5 Z"/></g>
<g><path style="opacity:1" fill="#474747" d="M 1510.5,1410.5 C 1510.66,1412.53 1510.5,1414.53 1510,1416.5C 1507.86,1420.75 1506.36,1425.08 1505.5,1429.5C 1505.34,1427.14 1505.5,1424.81 1506,1422.5C 1508.03,1418.57 1509.53,1414.57 1510.5,1410.5 Z"/></g>
<g><path style="opacity:1" fill="#6d6d6d" d="M 650.5,1556.5 C 656.114,1556.07 661.447,1556.74 666.5,1558.5C 662.154,1558.67 657.821,1558.5 653.5,1558C 652.263,1557.77 651.263,1557.27 650.5,1556.5 Z"/></g>
<g><path style="opacity:1" fill="#6d6d6d" d="M 1359.5,1556.5 C 1358.74,1557.27 1357.74,1557.77 1356.5,1558C 1352.18,1558.5 1347.85,1558.67 1343.5,1558.5C 1348.55,1556.74 1353.89,1556.07 1359.5,1556.5 Z"/></g>
</svg>
